<svg width="288" height="288" viewBox="0 0 288 288" fill="none" xmlns="http://www.w3.org/2000/svg">
<path fill-rule="evenodd" clip-rule="evenodd" d="M288 144C288 125.09 284.275 106.364 277.039 88.8936C269.802 71.4227 259.195 55.5482 245.823 42.1766C232.452 28.8049 216.577 18.198 199.106 10.9613C181.636 3.72464 162.91 -1.6001e-05 144 0C125.09 -1.6001e-05 106.364 3.72464 88.8936 10.9613C71.4227 18.198 55.5482 28.8049 42.1766 42.1766C28.805 55.5482 18.198 71.4227 10.9613 88.8936C3.72464 106.364 -3.05176e-05 125.09 0 144C-3.05176e-05 162.91 3.72464 181.636 10.9613 199.106C18.198 216.577 28.805 232.452 42.1766 245.823C55.5482 259.195 71.4227 269.802 88.8936 277.039C106.364 284.275 125.09 288 144 288C162.91 288 181.636 284.275 199.106 277.039C216.577 269.802 232.452 259.195 245.823 245.823C259.195 232.452 269.802 216.577 277.039 199.106C284.275 181.636 288 162.91 288 144H288ZM177.231 144L118.514 199.385L110.769 192.072L161.719 144L110.769 95.9279L118.514 88.6154L177.231 144Z" fill="white"/>
</svg>
