<svg width="103" height="71" viewBox="0 0 103 71" fill="none" xmlns="http://www.w3.org/2000/svg">
<path d="M56.0191 68.6874C56.0835 68.6022 56.1092 68.4886 56.1736 68.4034L101.117 13.6324C103.628 10.5509 103.628 5.55236 101.117 2.47087C101.091 2.44247 101.066 2.42827 101.04 2.41407C100.481 1.66791 99.7818 1.06529 98.9902 0.648323C98.1986 0.231353 97.3339 0.0100921 96.4567 0H6.55679C5.66348 0.0159217 4.78424 0.248006 3.98117 0.679864C3.1781 1.11172 2.47081 1.73282 1.90923 2.49927L1.88349 2.47087C0.668557 4.02135 0 6.00228 0 8.05163C0 10.101 0.668557 12.0819 1.88349 13.6324L46.93 68.6874C47.4908 69.4124 48.1875 69.9947 48.9721 70.394C49.7567 70.7932 50.6105 71 51.4746 71C52.3386 71 53.1924 70.7932 53.977 70.394C54.7616 69.9947 55.4583 69.4124 56.0191 68.6874Z" fill="white"/>
</svg>
