<svg width="150" height="150" viewBox="0 0 150 150" fill="none" xmlns="http://www.w3.org/2000/svg">
<path fill-rule="evenodd" clip-rule="evenodd" d="M105.743 44.2051L75.137 65.6292V74.8112L105.743 44.2051Z" fill="#003333" stroke="#11C2AD" stroke-width="0.2249" stroke-miterlimit="22.9256" stroke-linejoin="round"/>
<path fill-rule="evenodd" clip-rule="evenodd" d="M105.737 44.1997L84.313 74.8058H75.1316L105.738 44.1997H105.737Z" fill="#003333" stroke="#11C2AD" stroke-width="0.2249" stroke-miterlimit="22.9256" stroke-linejoin="round"/>
<path fill-rule="evenodd" clip-rule="evenodd" d="M44.3536 105.583L74.9598 84.1591V74.9771L44.3536 105.583Z" fill="#003333" stroke="#11C2AD" stroke-width="0.2249" stroke-miterlimit="22.9256" stroke-linejoin="round"/>
<path fill-rule="evenodd" clip-rule="evenodd" d="M44.3591 105.589L65.7839 74.9824H74.9652L44.3591 105.589Z" fill="#003333" stroke="#11C2AD" stroke-width="0.2249" stroke-miterlimit="22.9256" stroke-linejoin="round"/>
<path fill-rule="evenodd" clip-rule="evenodd" d="M105.737 105.589L84.313 74.9824H75.1316L105.738 105.589H105.737Z" fill="#003333" stroke="#11C2AD" stroke-width="0.2249" stroke-miterlimit="22.9256" stroke-linejoin="round"/>
<path fill-rule="evenodd" clip-rule="evenodd" d="M105.743 105.583L75.137 84.1591V74.9771L105.743 105.583Z" fill="#003333" stroke="#11C2AD" stroke-width="0.2249" stroke-miterlimit="22.9256" stroke-linejoin="round"/>
<path fill-rule="evenodd" clip-rule="evenodd" d="M44.3591 44.1997L65.7839 74.8058H74.9652L44.3591 44.1997Z" fill="#003333" stroke="#11C2AD" stroke-width="0.2249" stroke-miterlimit="22.9256" stroke-linejoin="round"/>
<path fill-rule="evenodd" clip-rule="evenodd" d="M44.3536 44.2051L74.9598 65.6292V74.8112L44.3536 44.2051Z" fill="#003333" stroke="#11C2AD" stroke-width="0.2249" stroke-miterlimit="22.9256" stroke-linejoin="round"/>
<path fill-rule="evenodd" clip-rule="evenodd" d="M75.0552 2.53174L64.2314 63.8681L75.0552 74.692V2.53174Z" fill="#003333" stroke="#11C2AD" stroke-width="0.2249" stroke-miterlimit="22.9256" stroke-linejoin="round"/>
<path fill-rule="evenodd" clip-rule="evenodd" d="M75.0416 2.53174L85.8654 63.8681L75.0416 74.692V2.53174Z" fill="#034844" stroke="#11C2AD" stroke-width="0.2249" stroke-miterlimit="22.9256" stroke-linejoin="round"/>
<path fill-rule="evenodd" clip-rule="evenodd" d="M75.0416 147.256L85.8654 85.9201L75.0416 75.0962V147.256Z" fill="#003333" stroke="#11C2AD" stroke-width="0.2249" stroke-miterlimit="22.9256" stroke-linejoin="round"/>
<path fill-rule="evenodd" clip-rule="evenodd" d="M75.0552 147.256L64.2314 85.9201L75.0552 75.0962V147.256Z" fill="#034844" stroke="#11C2AD" stroke-width="0.2249" stroke-miterlimit="22.9256" stroke-linejoin="round"/>
<path fill-rule="evenodd" clip-rule="evenodd" d="M147.41 74.9012L86.0748 64.0767L75.2502 74.9012H147.41Z" fill="#003333" stroke="#11C2AD" stroke-width="0.2249" stroke-miterlimit="22.9256" stroke-linejoin="round"/>
<path fill-rule="evenodd" clip-rule="evenodd" d="M147.41 74.8877L86.0748 85.7115L75.2502 74.8877H147.41Z" fill="#034844" stroke="#11C2AD" stroke-width="0.2249" stroke-miterlimit="22.9256" stroke-linejoin="round"/>
<path fill-rule="evenodd" clip-rule="evenodd" d="M2.68567 74.8877L64.022 85.7115L74.8466 74.8877H2.68567Z" fill="#003333" stroke="#11C2AD" stroke-width="0.2249" stroke-miterlimit="22.9256" stroke-linejoin="round"/>
<path fill-rule="evenodd" clip-rule="evenodd" d="M2.68567 74.9012L64.022 64.0767L74.8466 74.9012H2.68567Z" fill="#034844" stroke="#11C2AD" stroke-width="0.2249" stroke-miterlimit="22.9256" stroke-linejoin="round"/>
</svg>
