<svg width="150" height="150" viewBox="0 0 150 150" fill="none" xmlns="http://www.w3.org/2000/svg">
<path d="M110.015 90.0749C108.508 89.3258 98.7125 84.8315 97.2055 84.0824C95.6984 83.3333 94.1914 83.3333 92.6843 84.8315C91.1772 86.3296 88.1631 90.824 86.656 92.3221C85.9025 93.8202 84.3954 93.8202 82.8884 93.0712C77.6137 90.824 72.339 87.8277 67.8178 84.0824C64.0501 80.3371 60.2825 75.8427 57.2683 71.3483C56.5148 69.8502 57.2683 68.3521 58.0219 67.603C58.7754 66.8539 59.5289 65.3558 61.036 64.6067C61.7895 63.8577 62.5431 62.3595 62.5431 61.6105C63.2966 60.8614 63.2966 59.3633 62.5431 58.6142C61.7895 57.8652 58.0219 48.8764 56.5148 45.1311C55.7613 39.8876 54.2542 39.8876 52.7472 39.8876C51.9936 39.8876 50.4866 39.8876 48.9795 39.8876C47.4724 39.8876 45.2118 41.3858 44.4583 42.1348C39.9371 46.6292 37.6765 51.8727 37.6765 57.8652C38.4301 64.6067 40.6907 71.3483 45.2118 77.3408C53.5007 89.3258 64.0501 99.0637 76.8601 105.056C80.6278 106.554 83.6419 108.052 87.4096 108.801C91.1772 110.3 94.9449 110.3 99.4661 109.551C104.741 108.801 109.262 105.056 112.276 100.562C113.783 97.5655 113.783 94.5693 113.03 91.573C113.03 91.573 111.523 90.824 110.015 90.0749ZM128.854 21.9101C99.4661 -7.30337 51.9936 -7.30337 22.6059 21.9101C-1.50706 45.8802 -6.02825 82.5843 10.5494 111.798L0 150L39.9371 139.513C51.2401 145.506 63.2966 148.502 75.3531 148.502C116.797 148.502 149.953 115.543 149.953 74.3446C150.706 54.8689 142.417 36.1423 128.854 21.9101ZM108.508 126.779C98.7125 132.772 87.4096 136.517 75.3531 136.517C64.0501 136.517 53.5007 133.521 43.7048 128.277L41.4442 126.779L18.0847 132.772L24.113 110.3L22.6059 108.052C4.52118 78.0899 13.5636 40.6367 42.9513 21.9101C72.339 3.18352 110.015 12.9213 128.1 41.3858C146.185 70.5993 137.896 108.801 108.508 126.779Z" fill="white"/>
</svg>
