<svg width="150" height="150" viewBox="0 0 150 150" fill="none" xmlns="http://www.w3.org/2000/svg">
<path d="M75 0C33.6676 0 0 33.6676 0 75C0 116.332 33.6676 150 75 150C116.332 150 150 116.332 150 75C150 33.6676 116.332 0 75 0ZM75 15C108.226 15 135 41.7737 135 75C135 105.108 112.991 129.847 84.1406 134.238V92.8857H101.602L104.341 75.1465H84.1406V65.4492C84.1406 58.0774 86.543 51.5332 93.4424 51.5332H104.517V36.0498C102.567 35.788 98.4521 35.2148 90.6738 35.2148C74.4287 35.2148 64.9072 43.7952 64.9072 63.3398V75.1465H48.208V92.8857H64.9072V134.092C36.5277 129.305 15 104.777 15 75C15 41.7737 41.7737 15 75 15Z" fill="white"/>
</svg>
