<svg width="150" height="150" viewBox="0 0 150 150" fill="none" xmlns="http://www.w3.org/2000/svg">
<path d="M44.3182 0C19.8833 0 0 19.8833 0 44.3182V105.682C0 130.117 19.8833 150 44.3182 150H105.682C130.117 150 150 130.117 150 105.682V44.3182C150 19.8833 130.117 0 105.682 0H44.3182ZM44.3182 6.81818H105.682C126.431 6.81818 143.182 23.5693 143.182 44.3182V105.682C143.182 126.431 126.431 143.182 105.682 143.182H44.3182C23.5693 143.182 6.81818 126.431 6.81818 105.682V44.3182C6.81818 23.5693 23.5693 6.81818 44.3182 6.81818ZM115.909 27.2727C112.143 27.2727 109.091 30.3249 109.091 34.0909C109.091 37.8569 112.143 40.9091 115.909 40.9091C119.675 40.9091 122.727 37.8569 122.727 34.0909C122.727 30.3249 119.675 27.2727 115.909 27.2727ZM75 37.5C54.3297 37.5 37.5 54.3297 37.5 75C37.5 95.6703 54.3297 112.5 75 112.5C95.6703 112.5 112.5 95.6703 112.5 75C112.5 54.3297 95.6703 37.5 75 37.5ZM75 44.3182C91.9855 44.3182 105.682 58.0145 105.682 75C105.682 91.9855 91.9855 105.682 75 105.682C58.0145 105.682 44.3182 91.9855 44.3182 75C44.3182 58.0145 58.0145 44.3182 75 44.3182Z" fill="white"/>
</svg>
