<svg width="146" height="146" viewBox="0 0 146 146" fill="none" xmlns="http://www.w3.org/2000/svg">
<path fill-rule="evenodd" clip-rule="evenodd" d="M103.743 42.2051L73.137 63.6292V72.8112L103.743 42.2051Z" fill="#003333" stroke="#11C2AD" stroke-width="0.2249" stroke-miterlimit="22.9256" stroke-linejoin="round"/>
<path fill-rule="evenodd" clip-rule="evenodd" d="M103.737 42.1997L82.313 72.8058H73.1316L103.738 42.1997H103.737Z" fill="#003333" stroke="#11C2AD" stroke-width="0.2249" stroke-miterlimit="22.9256" stroke-linejoin="round"/>
<path fill-rule="evenodd" clip-rule="evenodd" d="M42.3536 103.583L72.9598 82.1591V72.9771L42.3536 103.583Z" fill="#003333" stroke="#11C2AD" stroke-width="0.2249" stroke-miterlimit="22.9256" stroke-linejoin="round"/>
<path fill-rule="evenodd" clip-rule="evenodd" d="M42.3591 103.589L63.7839 72.9824H72.9652L42.3591 103.589Z" fill="#003333" stroke="#11C2AD" stroke-width="0.2249" stroke-miterlimit="22.9256" stroke-linejoin="round"/>
<path fill-rule="evenodd" clip-rule="evenodd" d="M103.737 103.589L82.313 72.9824H73.1316L103.738 103.589H103.737Z" fill="#003333" stroke="#11C2AD" stroke-width="0.2249" stroke-miterlimit="22.9256" stroke-linejoin="round"/>
<path fill-rule="evenodd" clip-rule="evenodd" d="M103.743 103.583L73.137 82.1591V72.9771L103.743 103.583Z" fill="#003333" stroke="#11C2AD" stroke-width="0.2249" stroke-miterlimit="22.9256" stroke-linejoin="round"/>
<path fill-rule="evenodd" clip-rule="evenodd" d="M42.3591 42.1997L63.7839 72.8058H72.9652L42.3591 42.1997Z" fill="#003333" stroke="#11C2AD" stroke-width="0.2249" stroke-miterlimit="22.9256" stroke-linejoin="round"/>
<path fill-rule="evenodd" clip-rule="evenodd" d="M42.3536 42.2051L72.9598 63.6292V72.8112L42.3536 42.2051Z" fill="#003333" stroke="#11C2AD" stroke-width="0.2249" stroke-miterlimit="22.9256" stroke-linejoin="round"/>
<path fill-rule="evenodd" clip-rule="evenodd" d="M73.0552 0.531738L62.2314 61.8681L73.0552 72.692V0.531738Z" fill="#003333" stroke="#11C2AD" stroke-width="0.2249" stroke-miterlimit="22.9256" stroke-linejoin="round"/>
<path fill-rule="evenodd" clip-rule="evenodd" d="M73.0416 0.531738L83.8654 61.8681L73.0416 72.692V0.531738Z" fill="#034844" stroke="#11C2AD" stroke-width="0.2249" stroke-miterlimit="22.9256" stroke-linejoin="round"/>
<path fill-rule="evenodd" clip-rule="evenodd" d="M73.0416 145.256L83.8654 83.9201L73.0416 73.0962V145.256Z" fill="#003333" stroke="#11C2AD" stroke-width="0.2249" stroke-miterlimit="22.9256" stroke-linejoin="round"/>
<path fill-rule="evenodd" clip-rule="evenodd" d="M73.0552 145.256L62.2314 83.9201L73.0552 73.0962V145.256Z" fill="#034844" stroke="#11C2AD" stroke-width="0.2249" stroke-miterlimit="22.9256" stroke-linejoin="round"/>
<path fill-rule="evenodd" clip-rule="evenodd" d="M145.41 72.9012L84.0748 62.0767L73.2502 72.9012H145.41Z" fill="#003333" stroke="#11C2AD" stroke-width="0.2249" stroke-miterlimit="22.9256" stroke-linejoin="round"/>
<path fill-rule="evenodd" clip-rule="evenodd" d="M145.41 72.8877L84.0748 83.7115L73.2502 72.8877H145.41Z" fill="#034844" stroke="#11C2AD" stroke-width="0.2249" stroke-miterlimit="22.9256" stroke-linejoin="round"/>
<path fill-rule="evenodd" clip-rule="evenodd" d="M0.685669 72.8877L62.022 83.7115L72.8466 72.8877H0.685669Z" fill="#003333" stroke="#11C2AD" stroke-width="0.2249" stroke-miterlimit="22.9256" stroke-linejoin="round"/>
<path fill-rule="evenodd" clip-rule="evenodd" d="M0.685669 72.9012L62.022 62.0767L72.8466 72.9012H0.685669Z" fill="#034844" stroke="#11C2AD" stroke-width="0.2249" stroke-miterlimit="22.9256" stroke-linejoin="round"/>
</svg>
